<?xml version="1.0" encoding="UTF-8" standalone="no"?>
<svg
   width="128"
   height="128"
   viewBox="0 0 128 128"
   version="1.1"
   id="svg8"
   xmlns="http://www.w3.org/2000/svg"
   xmlns:svg="http://www.w3.org/2000/svg">
  <defs
     id="defs12" />
  <title
     id="title2">JD favicon</title>
  <circle
     cx="64"
     cy="64"
     r="60"
     fill="#111827"
     id="circle4" />
  <g
     aria-label="JD"
     transform="scale(0.87906911,1.137567)"
     id="text6"
     style="font-weight:bold;font-size:77.6043px;font-family:'Go Medium';-inkscape-font-specification:'Go Medium,  Bold';letter-spacing:-2;dominant-baseline:middle;text-anchor:middle;fill:#ffffff;stroke-width:1.38578">
    <path
       d="m 29.245901,81.449836 q 6.631227,2.50092 12.694063,2.50092 2.879847,0 4.812376,-0.492605 1.970422,-0.492606 3.107204,-1.743066 1.174674,-1.25046 1.667279,-3.372452 0.492606,-2.121993 0.492606,-5.342874 V 30.74937 h -9.283718 v -6.934369 h 19.097934 v 48.426903 q 0,9.662645 -4.850269,14.247665 -4.812376,4.622912 -14.967627,4.622912 -6.479656,0 -12.769848,-2.046207 z"
       id="path8" />
    <path
       d="M 74.081311,79.896235 V 23.815001 h 18.719006 q 13.565593,0 20.575753,6.858583 7.04804,6.858584 7.04804,19.931574 0,6.972261 -1.89463,12.428814 -1.85675,5.418659 -5.45655,9.170039 -3.59981,3.75138 -8.82901,5.721802 -5.191303,1.970422 -11.898315,1.970422 z m 9.814216,-6.934369 h 6.82069 q 9.700543,0 14.475023,-5.342874 4.77448,-5.342875 4.77448,-16.293872 0,-8.071151 -3.37245,-13.035098 -1.32625,-2.0841 -2.87985,-3.524023 -1.5536,-1.477817 -3.59981,-2.387242 -2.008311,-0.909425 -4.622909,-1.326245 -2.614598,-0.41682 -6.024943,-0.41682 h -5.570231 z"
       id="path10" />
  </g>
</svg>
